<svg height="512" viewBox="0 0 58 58" width="512" xmlns="http://www.w3.org/2000/svg" fill="black"><g id="Page-1" fill-rule="evenodd"><g id="046---Any-Solvent" fill="rgb(0, 0, 0)" fill-rule="nonzero"><path id="Shape" d="m29 5c-13.254834 0-24 10.745166-24 24s10.745166 24 24 24 24-10.745166 24-24c-.0154295-13.2484376-10.7515624-23.98457048-24-24zm12.169 39.763c-.7327897.3100717-1.5587449.3163273-2.2961471.0173906-.7374023-.2989367-1.3258407-.8785758-1.6358529-1.6113906l-2.187-5.169h-12.1l-2.187 5.169c-.4176435.9871249-1.3301868 1.6764557-2.3938837 1.8083283-1.0636969.1318725-2.1169466-.3137478-2.763-1.1690001-.6460535-.8552523-.7867598-1.9902034-.3691163-2.9773282l11-26c.4695193-1.110033 1.5577524-1.8313123 2.763-1.8313123s2.2934807.7212793 2.763 1.8313123l11 26c.3100717.7327897.3163273 1.5587449.0173906 2.2961471-.2989367.7374023-.8785758 1.3258407-1.6113906 1.6358529z"/><path id="Shape" d="m25.488 32h7.024l-3.512-8.301z"/><path id="Shape" d="m29 0c-16.0162577 0-29 12.9837423-29 29s12.9837423 29 29 29 29-12.9837423 29-29-12.9837423-29-29-29zm0 55c-14.3594035 0-26-11.6405965-26-26s11.6405965-26 26-26 26 11.6405965 26 26c-.0159821 14.3527783-11.6472217 25.9840179-26 26z"/></g></g></svg>